<svg width="17" height="17" viewBox="0 0 17 17" fill="none" xmlns="http://www.w3.org/2000/svg">
<path d="M16.6458 4.25H14.8389C14.6653 3.0515 13.6411 2.125 12.3958 2.125H11.1315C10.9579 0.9265 9.93367 0 8.68842 0C7.44317 0 6.41821 0.9265 6.24467 2.125H4.60417C3.35892 2.125 2.33467 3.0515 2.16113 4.25H0.354167C0.158667 4.25 0 4.40867 0 4.60417C0 4.79967 0.158667 4.95833 0.354167 4.95833H2.47917V15.5996C2.47917 16.3717 3.10746 17 3.87954 17H13.1212C13.8932 17 14.5215 16.3717 14.5215 15.5996V4.95833H16.6465C16.8413 4.95833 17 4.79967 17 4.60417C17 4.40867 16.8413 4.25 16.6458 4.25ZM8.68842 0.708333C9.54408 0.708333 10.2588 1.3175 10.4238 2.125H6.953C7.11733 1.3175 7.83275 0.708333 8.68842 0.708333ZM13.8125 15.5996C13.8125 15.9814 13.5023 16.2917 13.1205 16.2917H3.87954C3.49775 16.2917 3.1875 15.9814 3.1875 15.5996V4.95833H13.8125V15.5996ZM2.86875 4.25C3.03379 3.4425 3.7485 2.83333 4.60417 2.83333H6.56342H10.8134H12.3958C13.2515 2.83333 13.9662 3.4425 14.1313 4.25H2.86875Z" fill="white"/>
<path d="M5.66667 14.5209C5.86217 14.5209 6.02083 14.3622 6.02083 14.1667V7.08335C6.02083 6.88785 5.86217 6.72919 5.66667 6.72919C5.47117 6.72919 5.3125 6.88785 5.3125 7.08335V14.1667C5.3125 14.3622 5.47117 14.5209 5.66667 14.5209Z" fill="white"/>
<path d="M8.50004 14.5209C8.69554 14.5209 8.85421 14.3622 8.85421 14.1667V7.08335C8.85421 6.88785 8.69554 6.72919 8.50004 6.72919C8.30454 6.72919 8.14587 6.88785 8.14587 7.08335V14.1667C8.14587 14.3622 8.30454 14.5209 8.50004 14.5209Z" fill="white"/>
<path d="M11.3333 14.5209C11.5288 14.5209 11.6875 14.3622 11.6875 14.1667V7.08335C11.6875 6.88785 11.5288 6.72919 11.3333 6.72919C11.1378 6.72919 10.9791 6.88785 10.9791 7.08335V14.1667C10.9791 14.3622 11.1378 14.5209 11.3333 14.5209Z" fill="white"/>
</svg>
