<svg width="9" height="9" fill="none" xmlns="http://www.w3.org/2000/svg"><path d="M4.5 2.246A2.257 2.257 0 002.246 4.5 2.257 2.257 0 004.5 6.755 2.257 2.257 0 006.754 4.5 2.257 2.257 0 004.5 2.246zm0-.663a.44.44 0 01-.44-.44V.44a.44.44 0 11.88 0v.704a.44.44 0 01-.44.44zm0 5.834a.44.44 0 00-.44.44v.703a.44.44 0 10.88 0v-.704a.44.44 0 00-.44-.44zm2.062-4.979a.44.44 0 010-.622l.498-.498a.44.44 0 01.622.622l-.498.498a.44.44 0 01-.622 0zM2.438 6.563a.44.44 0 00-.622 0l-.498.497a.44.44 0 00.622.622l.498-.498a.44.44 0 000-.621zM7.417 4.5a.44.44 0 01.44-.44h.703a.44.44 0 110 .88h-.704a.44.44 0 01-.44-.44zm-5.834 0a.44.44 0 00-.44-.44H.44a.44.44 0 100 .88h.704a.44.44 0 00.44-.44zm4.979 2.063a.44.44 0 01.622 0l.498.497a.44.44 0 11-.622.622l-.498-.498a.44.44 0 010-.621zM2.438 2.438a.44.44 0 000-.622l-.498-.498a.44.44 0 00-.622.622l.498.498a.44.44 0 00.622 0z" fill="#DBFF00"/></svg>