<?xml version="1.0" ?><svg style="enable-background:new 0 0 24 24;" version="1.1" viewBox="0 0 24 24" xml:space="preserve" xmlns="http://www.w3.org/2000/svg" xmlns:xlink="http://www.w3.org/1999/xlink"><style type="text/css">
	.st0{display:none;}
</style><g class="st0" id="grid"/><g id="icon"><path d="M23.5,6h-2.551c-0.245-1.692-1.691-3-3.449-3h-1.785c-0.245-1.692-1.691-3-3.449-3S9.061,1.308,8.816,3H6.5   C4.742,3,3.296,4.308,3.051,6H0.5C0.224,6,0,6.224,0,6.5S0.224,7,0.5,7h3v15.023C3.5,23.113,4.387,24,5.477,24h13.047   c1.09,0,1.977-0.887,1.977-1.977V7h3C23.776,7,24,6.776,24,6.5S23.776,6,23.5,6z M12.266,1c1.208,0,2.217,0.86,2.45,2H9.816   C10.048,1.86,11.058,1,12.266,1z M19.5,22.023c0,0.539-0.438,0.977-0.977,0.977H5.477C4.938,23,4.5,22.562,4.5,22.023V7h15V22.023z    M4.05,6C4.283,4.86,5.292,4,6.5,4h2.766h6H17.5c1.208,0,2.217,0.86,2.45,2H4.05z"/><path d="M8,20.5c0.276,0,0.5-0.224,0.5-0.5V10c0-0.276-0.224-0.5-0.5-0.5S7.5,9.724,7.5,10v10C7.5,20.276,7.724,20.5,8,20.5z"/><path d="M12,20.5c0.276,0,0.5-0.224,0.5-0.5V10c0-0.276-0.224-0.5-0.5-0.5s-0.5,0.224-0.5,0.5v10C11.5,20.276,11.724,20.5,12,20.5z   "/><path d="M16,20.5c0.276,0,0.5-0.224,0.5-0.5V10c0-0.276-0.224-0.5-0.5-0.5s-0.5,0.224-0.5,0.5v10C15.5,20.276,15.724,20.5,16,20.5z   "/></g></svg>