<svg width="9" height="9" viewBox="0 0 9 9" fill="none" xmlns="http://www.w3.org/2000/svg">
<path d="M7.78288 7.66479C8.40121 7.04624 8.80458 6.29416 8.99317 5.50133C9.04718 5.27423 8.76817 5.12091 8.60358 5.28638C8.60156 5.28842 8.59954 5.29044 8.59752 5.29246C7.22178 6.6687 4.97477 6.64216 3.63263 5.21287C2.36729 3.86535 2.3839 1.77335 3.66883 0.444526C3.68504 0.427773 3.70136 0.411217 3.71782 0.394859C3.88287 0.230829 3.7286 -0.0470013 3.50226 0.00680762C2.71677 0.193546 1.97121 0.5913 1.3559 1.20028C-0.443176 2.98085 -0.453309 5.86771 1.33377 7.6603C3.11304 9.44508 6.00174 9.44656 7.78288 7.66479Z" fill="#666666"/>
</svg>
