<svg width="9" height="9" viewBox="0 0 9 9" fill="none" xmlns="http://www.w3.org/2000/svg">
<path d="M4.50003 2.24585C3.25705 2.24585 2.24585 3.25725 2.24585 4.50023C2.24585 5.74321 3.25705 6.75462 4.50003 6.75462C5.74282 6.75462 6.75422 5.74341 6.75422 4.50023C6.75422 3.25705 5.74282 2.24585 4.50003 2.24585Z" fill="#DBFF00"/>
<path d="M4.50002 1.58317C4.25708 1.58317 4.06018 1.38627 4.06018 1.14353V0.439836C4.06018 0.1969 4.25708 0 4.50002 0C4.74295 0 4.93985 0.1969 4.93985 0.439836V1.14353C4.93985 1.38627 4.74275 1.58317 4.50002 1.58317Z" fill="#DBFF00"/>
<path d="M4.50002 7.41663C4.25708 7.41663 4.06018 7.61353 4.06018 7.85646V8.55996C4.06018 8.8031 4.25708 9 4.50002 9C4.74295 9 4.93985 8.8031 4.93985 8.55996V7.85646C4.93985 7.61353 4.74275 7.41663 4.50002 7.41663Z" fill="#DBFF00"/>
<path d="M6.56229 2.43752C6.3907 2.26573 6.3907 1.98732 6.56229 1.81553L7.05992 1.3179C7.23151 1.14631 7.51012 1.14631 7.6819 1.3179C7.85369 1.48969 7.85369 1.7683 7.6819 1.93989L7.18427 2.43752C7.01268 2.60931 6.73427 2.60931 6.56229 2.43752Z" fill="#DBFF00"/>
<path d="M2.43759 6.56265C2.26581 6.39066 1.9874 6.39066 1.81561 6.56265L1.31798 7.06008C1.14639 7.23167 1.14619 7.51048 1.31798 7.68207C1.48977 7.85366 1.76837 7.85366 1.93996 7.68207L2.43759 7.18424C2.60938 7.01265 2.60938 6.73404 2.43759 6.56265Z" fill="#DBFF00"/>
<path d="M7.41663 4.50002C7.41663 4.25708 7.61353 4.06018 7.85646 4.06018H8.56016C8.8031 4.06018 9 4.25708 9 4.50002C9 4.74295 8.8031 4.93965 8.56016 4.93965H7.85646C7.61353 4.93965 7.41663 4.74295 7.41663 4.50002Z" fill="#DBFF00"/>
<path d="M1.58317 4.50002C1.58317 4.25708 1.38627 4.06018 1.14333 4.06018H0.439836C0.1969 4.06018 0 4.25708 0 4.50002C0 4.74295 0.1969 4.93965 0.439836 4.93965H1.14353C1.38627 4.93965 1.58317 4.74295 1.58317 4.50002Z" fill="#DBFF00"/>
<path d="M6.56231 6.56265C6.7341 6.39106 7.01271 6.39106 7.1843 6.56265L7.68193 7.06028C7.85372 7.23167 7.85372 7.51048 7.68193 7.68207C7.51014 7.85366 7.23173 7.85366 7.05994 7.68207L6.56231 7.18444C6.39052 7.01265 6.39052 6.73424 6.56231 6.56265Z" fill="#DBFF00"/>
<path d="M2.43755 2.43753C2.60934 2.26574 2.60934 1.98733 2.43755 1.81554L1.93992 1.31811C1.76813 1.14632 1.48972 1.14632 1.31793 1.31811C1.14614 1.4897 1.14614 1.76831 1.31793 1.9399L1.81556 2.43753C1.98735 2.60952 2.26576 2.60952 2.43755 2.43753Z" fill="#DBFF00"/>
</svg>
