<svg width="17" height="17" fill="none" xmlns="http://www.w3.org/2000/svg"><path d="M16.646 4.25h-1.807a2.475 2.475 0 00-2.443-2.125h-1.264A2.475 2.475 0 008.688 0c-1.245 0-2.27.926-2.443 2.125h-1.64c-1.246 0-2.27.926-2.444 2.125H.354a.354.354 0 000 .708H2.48V15.6c0 .772.628 1.4 1.4 1.4h9.242c.772 0 1.4-.628 1.4-1.4V4.958h2.125a.354.354 0 000-.708zM8.688.708c.856 0 1.57.61 1.736 1.417H6.953A1.773 1.773 0 018.688.708zM13.812 15.6c0 .381-.31.692-.691.692H3.88a.693.693 0 01-.692-.692V4.958h10.624V15.6zM2.87 4.25a1.774 1.774 0 011.735-1.417h7.792c.855 0 1.57.61 1.735 1.417H2.87z" fill="#000"/><path d="M5.667 14.52a.354.354 0 00.354-.353V7.083a.354.354 0 00-.708 0v7.084c0 .195.158.354.354.354zm2.833 0a.354.354 0 00.354-.353V7.083a.354.354 0 00-.708 0v7.084c0 .195.159.354.354.354zm2.833 0a.354.354 0 00.354-.353V7.083a.354.354 0 00-.708 0v7.084c0 .195.159.354.354.354z" fill="#000"/></svg>